<svg version="1.1" xmlns="http://www.w3.org/2000/svg" viewBox="0 0 387.4902840422544 363.22205773757725" width="387.4902840422544" height="363.22205773757725">
  <!-- svg-source:excalidraw -->
  
  <defs>
    <style class="style-fonts">
      
    </style>
    
  </defs>
  <g transform="translate(164.27658150830484 276.950489351449) rotate(0 59.803843393668785 -95.33946048266037)" stroke="none"><path fill="#FBEED3" d="M 10.54,0 Q 10.54,0 10.66,3.95 10.78,7.91 15.00,5.71 19.23,3.52 24.09,2.34 28.94,1.15 34.41,-1.02 39.87,-3.20 36.38,-6.12 32.90,-9.05 30.45,-13.37 28.01,-17.69 25.24,-21.85 22.46,-26.02 18.71,-29.71 14.95,-33.41 11.14,-36.66 7.33,-39.92 3.91,-42.98 0.49,-46.04 -4.51,-47.92 -9.53,-49.79 -15.51,-53.06 -21.50,-56.33 -22.92,-61.21 -24.33,-66.08 -23.11,-71.08 -21.88,-76.08 -18.07,-83.75 -14.26,-91.42 -11.82,-95.56 -9.38,-99.71 -7.34,-103.53 -5.29,-107.35 -2.35,-113.09 0.59,-118.83 3.56,-123.73 6.53,-128.62 13.02,-132.15 19.51,-135.69 23.73,-136.74 27.95,-137.80 34.63,-138.48 41.32,-139.17 48.17,-140.00 55.02,-140.84 61.92,-141.99 68.82,-143.14 75.79,-144.48 82.75,-145.82 88.14,-146.71 93.52,-147.59 102.15,-147.94 110.77,-148.29 115.89,-145.33 121.01,-142.38 124.91,-139.08 128.82,-135.79 134.09,-131.54 139.36,-127.29 145.27,-123.42 151.17,-119.56 156.47,-117.12 161.76,-114.69 167.02,-113.80 172.29,-112.92 177.48,-110.51 182.68,-108.10 188.90,-102.88 195.12,-97.67 198.51,-93.55 201.91,-89.44 205.54,-82.92 209.16,-76.41 210.69,-70.08 212.21,-63.74 212.27,-56.35 212.33,-48.95 211.11,-43.35 209.88,-37.75 209.38,-30.91 208.89,-24.07 208.73,-19.67 208.57,-15.26 208.48,-10.87 208.39,-6.48 208.42,0.51 208.46,7.50 208.59,11.82 208.73,16.13 207.20,22.05 205.66,27.97 202.40,31.27 199.14,34.58 195.01,37.39 190.87,40.20 181.92,43.84 172.97,47.48 166.09,49.32 159.21,51.17 151.70,53.09 144.19,55.01 137.06,57.12 129.93,59.22 122.86,61.49 115.79,63.75 111.34,65.52 106.90,67.29 100.91,71.27 94.92,75.25 90.32,78.23 85.72,81.22 78.68,83.73 71.64,86.25 64.46,87.07 57.29,87.89 49.69,87.57 42.09,87.25 31.85,85.12 21.61,82.99 15.27,80.44 8.93,77.89 2.68,74.47 -3.56,71.05 -8.31,68.11 -13.07,65.16 -17.16,62.41 -21.25,59.66 -25.35,56.76 -29.46,53.86 -33.70,52.48 -37.94,51.09 -46.44,47.18 -54.95,43.27 -59.97,40.03 -64.99,36.79 -69.03,33.69 -73.07,30.60 -76.38,27.74 -79.69,24.87 -84.32,20.14 -88.96,15.42 -92.11,9.22 -95.26,3.03 -97.06,-1.39 -98.86,-5.82 -100.93,-11.89 -102.99,-17.96 -104.44,-25.86 -105.89,-33.76 -106.25,-39.32 -106.61,-44.89 -106.11,-52.00 -105.61,-59.11 -99.86,-66.83 -94.11,-74.55 -88.64,-77.74 -83.17,-80.94 -78.08,-84.17 -73.00,-87.40 -69.57,-91.29 -66.15,-95.17 -64.42,-100.49 -62.69,-105.80 -62.52,-110.90 -62.36,-116.00 -62.40,-121.23 -62.45,-126.46 -61.70,-130.92 -60.96,-135.38 -57.22,-141.91 -53.48,-148.43 -48.88,-150.54 -44.28,-152.65 -39.86,-153.28 -35.43,-153.91 -29.18,-154.12 -22.94,-154.33 -14.93,-153.66 -6.92,-153.00 -2.00,-151.40 2.91,-149.81 9.07,-146.46 15.23,-143.11 20.69,-137.28 26.15,-131.45 26.89,-130.42 27.63,-129.39 28.02,-127.76 28.41,-126.13 28.40,-124.45 28.39,-122.78 27.97,-121.15 27.56,-119.52 26.77,-118.04 25.98,-116.56 24.86,-115.32 23.74,-114.07 22.35,-113.12 20.97,-112.18 19.40,-111.60 17.82,-111.01 16.16,-110.82 14.49,-110.63 12.83,-110.84 11.16,-111.06 9.60,-111.66 8.04,-112.27 6.66,-113.23 5.29,-114.19 4.19,-115.45 3.08,-116.72 2.31,-118.21 1.54,-119.70 5.51,-115.67 9.48,-111.64 2.56,-114.54 -4.35,-117.43 -10.84,-121.23 -17.34,-125.03 -24.74,-126.68 -32.14,-128.33 -36.92,-127.92 -41.70,-127.51 -48.88,-128.59 -56.07,-129.67 -62.34,-135.41 -68.61,-141.15 -71.07,-145.12 -73.53,-149.09 -77.21,-156.34 -80.89,-163.60 -83.30,-169.13 -85.72,-174.67 -86.95,-179.85 -88.18,-185.03 -88.30,-192.89 -88.41,-200.75 -85.97,-204.50 -83.54,-208.25 -79.61,-210.98 -75.68,-213.72 -69.04,-216.09 -62.40,-218.47 -55.95,-222.35 -49.51,-226.24 -44.78,-228.97 -40.04,-231.70 -35.47,-235.16 -30.89,-238.61 -26.05,-242.31 -21.21,-246.00 -18.41,-249.32 -15.61,-252.63 -12.51,-256.07 -9.41,-259.51 -5.66,-263.71 -1.92,-267.91 2.68,-271.26 7.29,-274.62 11.58,-276.33 15.86,-278.05 23.31,-278.73 30.75,-279.42 35.90,-279.34 41.05,-279.27 48.98,-277.74 56.91,-276.21 64.60,-274.24 72.28,-272.27 84.43,-269.01 96.58,-265.75 103.33,-264.03 110.08,-262.30 116.61,-261.09 123.13,-259.88 128.60,-259.01 134.07,-258.15 140.05,-257.28 146.02,-256.41 151.03,-254.69 156.04,-252.97 160.19,-249.88 164.35,-246.79 168.15,-242.50 171.95,-238.21 174.33,-233.89 176.72,-229.57 178.74,-225.39 180.75,-221.20 183.38,-214.41 186.00,-207.62 186.42,-203.12 186.84,-198.62 187.16,-193.39 187.49,-188.17 187.65,-183.23 187.82,-178.30 189.18,-172.71 190.54,-167.13 194.27,-161.70 198.01,-156.27 203.40,-150.58 208.78,-144.89 212.26,-139.80 215.74,-134.70 218.17,-130.57 220.60,-126.43 222.01,-122.28 223.42,-118.13 224.21,-112.85 224.99,-107.58 225.99,-102.85 226.99,-98.12 226.52,-90.64 226.04,-83.17 223.67,-74.90 221.29,-66.64 220.30,-63.44 219.32,-60.24 218.36,-58.25 217.39,-56.27 215.85,-54.70 214.30,-53.14 212.34,-52.14 210.37,-51.15 208.19,-50.83 206.01,-50.52 203.84,-50.92 201.68,-51.32 199.75,-52.39 197.83,-53.46 196.34,-55.09 194.86,-56.71 193.97,-58.73 193.09,-60.75 192.89,-62.94 192.70,-65.14 193.21,-67.28 193.73,-69.42 194.90,-71.28 196.07,-73.15 197.78,-74.54 199.49,-75.93 201.55,-76.71 203.61,-77.48 205.81,-77.56 208.01,-77.64 210.12,-77.01 212.23,-76.37 214.03,-75.10 215.83,-73.83 217.13,-72.05 218.43,-70.27 219.09,-68.17 219.75,-66.07 219.71,-63.87 219.66,-61.67 218.92,-59.59 218.18,-57.52 216.81,-55.79 215.44,-54.07 213.59,-52.87 211.75,-51.67 209.61,-51.12 207.48,-50.57 205.28,-50.73 203.09,-50.90 201.06,-51.75 199.03,-52.61 197.38,-54.07 195.73,-55.53 194.63,-57.43 193.53,-59.34 193.10,-61.50 192.67,-63.66 192.95,-65.85 193.23,-68.03 193.23,-68.03 193.23,-68.03 194.16,-71.25 195.10,-74.46 196.73,-81.25 198.36,-88.03 198.83,-92.33 199.31,-96.63 198.43,-103.26 197.56,-109.90 195.35,-115.42 193.13,-120.95 190.62,-124.89 188.10,-128.82 184.99,-132.50 181.89,-136.19 176.91,-142.64 171.93,-149.08 169.18,-153.24 166.43,-157.41 164.31,-165.39 162.19,-173.37 162.31,-177.91 162.43,-182.46 162.51,-187.76 162.59,-193.05 162.49,-197.77 162.40,-202.48 161.07,-206.69 159.74,-210.90 157.57,-215.25 155.40,-219.60 152.58,-224.15 149.77,-228.71 146.09,-232.87 142.42,-237.04 136.61,-238.80 130.80,-240.56 125.49,-241.69 120.18,-242.83 113.07,-243.97 105.96,-245.12 99.38,-246.59 92.81,-248.07 80.63,-250.00 68.46,-251.93 61.13,-252.78 53.81,-253.63 47.53,-254.06 41.25,-254.48 36.41,-254.31 31.57,-254.13 26.67,-254.51 21.77,-254.89 16.92,-251.67 12.08,-248.44 7.00,-243.17 1.92,-237.89 -2.18,-232.98 -6.30,-228.07 -10.69,-224.13 -15.08,-220.19 -20.51,-215.06 -25.93,-209.94 -30.65,-206.55 -35.37,-203.17 -39.29,-200.56 -43.20,-197.95 -52.53,-193.31 -61.87,-188.68 -62.24,-193.29 -62.60,-197.90 -61.45,-192.04 -60.30,-186.18 -58.17,-181.35 -56.03,-176.51 -52.57,-170.40 -49.11,-164.28 -45.39,-160.52 -41.66,-156.76 -36.33,-156.67 -30.99,-156.57 -25.90,-155.62 -20.81,-154.66 -16.02,-153.97 -11.23,-153.28 -5.85,-149.73 -0.46,-146.18 3.96,-144.18 8.39,-142.19 13.62,-139.97 18.86,-137.74 23.24,-133.57 27.63,-129.39 28.02,-127.76 28.41,-126.13 28.40,-124.45 28.39,-122.78 27.97,-121.15 27.56,-119.53 26.77,-118.05 25.98,-116.57 24.86,-115.32 23.74,-114.07 22.36,-113.13 20.97,-112.18 19.40,-111.60 17.83,-111.01 16.16,-110.82 14.49,-110.63 12.83,-110.84 11.17,-111.06 9.60,-111.66 8.04,-112.27 6.66,-113.23 5.29,-114.19 4.19,-115.45 3.08,-116.72 2.31,-118.21 1.54,-119.70 -0.16,-120.80 -1.87,-121.89 -5.93,-123.84 -10.00,-125.79 -16.12,-126.04 -22.23,-126.30 -28.46,-124.96 -34.69,-123.62 -34.78,-119.32 -34.88,-115.01 -35.17,-110.23 -35.47,-105.46 -36.71,-99.59 -37.95,-93.72 -41.01,-86.70 -44.07,-79.69 -50.08,-72.82 -56.09,-65.96 -61.55,-62.36 -67.01,-58.77 -73.64,-55.29 -80.27,-51.81 -80.33,-46.72 -80.38,-41.63 -80.08,-36.80 -79.78,-31.97 -78.27,-25.94 -76.76,-19.92 -75.07,-15.22 -73.39,-10.53 -71.53,-4.97 -69.66,0.59 -66.84,3.91 -64.02,7.24 -58.39,12.03 -52.76,16.83 -48.32,19.38 -43.88,21.94 -36.67,25.22 -29.46,28.50 -24.12,31.34 -18.78,34.19 -13.86,37.99 -8.94,41.79 -5.32,44.35 -1.69,46.92 2.31,49.44 6.33,51.96 11.33,54.37 16.34,56.78 26.25,59.75 36.16,62.73 40.65,62.97 45.14,63.21 50.70,63.72 56.25,64.22 61.34,64.10 66.42,63.98 72.93,61.75 79.43,59.52 85.26,56.78 91.08,54.03 95.77,51.68 100.45,49.34 104.95,47.92 109.44,46.50 116.37,43.61 123.30,40.73 130.33,37.76 137.37,34.78 144.45,31.78 151.52,28.79 157.85,26.09 164.18,23.40 168.18,21.80 172.19,20.19 177.60,18.16 183.02,16.12 183.17,11.79 183.31,7.46 183.38,0.39 183.45,-6.66 183.43,-11.17 183.40,-15.67 183.59,-24.60 183.78,-33.52 185.03,-41.26 186.29,-49.00 186.42,-56.20 186.55,-63.39 185.03,-67.85 183.50,-72.30 181.00,-76.13 178.50,-79.96 175.17,-84.72 171.84,-89.47 167.48,-91.98 163.13,-94.48 158.58,-96.02 154.03,-97.57 147.82,-100.36 141.60,-103.15 134.50,-106.88 127.40,-110.61 120.82,-114.85 114.24,-119.10 109.93,-123.31 105.62,-127.53 101.00,-127.59 96.38,-127.66 91.87,-127.12 87.36,-126.59 80.41,-124.59 73.47,-122.60 66.41,-120.59 59.35,-118.59 52.11,-116.68 44.88,-114.78 39.52,-113.70 34.16,-112.63 28.74,-110.57 23.31,-108.50 19.92,-102.22 16.53,-95.94 14.46,-91.87 12.39,-87.81 9.82,-82.80 7.25,-77.79 3.01,-75.20 -1.22,-72.60 3.67,-70.36 8.57,-68.13 15.27,-62.87 21.98,-57.62 26.28,-54.17 30.58,-50.72 36.52,-45.66 42.46,-40.60 46.09,-35.90 49.72,-31.20 52.96,-26.39 56.20,-21.58 58.56,-17.28 60.93,-12.98 62.91,-4.73 64.90,3.50 61.43,10.09 57.96,16.68 51.11,19.22 44.26,21.76 39.24,23.47 34.23,25.19 26.65,26.39 19.07,27.59 12.85,27.28 6.62,26.98 0.23,24.19 -6.15,21.40 -8.46,14.72 -10.78,8.03 -10.66,4.01 -10.54,0 -10.38,-1.26 -10.23,-2.52 -9.78,-3.71 -9.33,-4.89 -8.61,-5.94 -7.89,-6.99 -6.93,-7.83 -5.98,-8.67 -4.86,-9.26 -3.73,-9.85 -2.50,-10.16 -1.27,-10.46 0.00,-10.46 1.27,-10.46 2.50,-10.16 3.73,-9.85 4.86,-9.26 5.98,-8.67 6.93,-7.83 7.89,-6.98 8.61,-5.94 9.33,-4.89 9.78,-3.70 10.23,-2.52 10.38,-1.26 10.54,0.00 10.54,0.00 L 10.54,0 Z"></path></g><g transform="translate(84.5381236500798 103.60601574661194) rotate(0 -37.2690618250399 62.40401049774135)" stroke="none"><path fill="#FBEED3" d="M 2.74,10.08 Q 2.74,10.08 -2.74,11.53 -8.23,12.98 -12.74,14.56 -17.26,16.14 -22.74,17.48 -28.22,18.82 -34.74,22.13 -41.27,25.44 -45.28,27.60 -49.30,29.76 -54.30,32.81 -59.31,35.86 -60.48,40.79 -61.65,45.72 -61.24,51.32 -60.83,56.92 -58.60,62.34 -56.38,67.77 -53.47,73.37 -50.55,78.97 -49.22,83.82 -47.89,88.66 -45.55,94.31 -43.21,99.96 -40.07,102.85 -36.93,105.74 -31.68,107.96 -26.43,110.18 -22.30,111.73 -18.17,113.29 -16.12,114.06 -14.08,114.82 -12.38,116.20 -10.69,117.58 -9.52,119.43 -8.36,121.28 -7.85,123.40 -7.33,125.52 -7.52,127.70 -7.71,129.88 -8.59,131.88 -9.46,133.88 -10.93,135.50 -12.40,137.11 -14.31,138.18 -16.22,139.24 -18.37,139.64 -20.52,140.04 -22.68,139.73 -24.84,139.42 -26.79,138.44 -28.74,137.45 -30.28,135.90 -31.81,134.34 -32.77,132.38 -33.73,130.42 -34.01,128.25 -34.29,126.09 -33.87,123.94 -33.44,121.80 -32.35,119.91 -31.27,118.01 -29.63,116.56 -28.00,115.11 -25.98,114.26 -23.97,113.41 -21.79,113.25 -19.61,113.09 -17.50,113.63 -15.38,114.17 -13.55,115.36 -11.72,116.54 -10.36,118.26 -9.00,119.97 -8.26,122.02 -7.52,124.08 -7.47,126.26 -7.43,128.45 -8.08,130.53 -8.74,132.61 -10.02,134.38 -11.31,136.15 -13.09,137.41 -14.88,138.67 -16.97,139.30 -19.06,139.93 -21.24,139.85 -23.43,139.78 -23.42,139.78 -23.42,139.78 -26.30,139.10 -29.18,138.41 -33.06,136.47 -36.94,134.53 -41.10,132.82 -45.26,131.11 -49.92,128.61 -54.58,126.12 -58.21,122.89 -61.84,119.66 -65.51,114.26 -69.18,108.86 -71.70,102.02 -74.21,95.18 -74.78,90.87 -75.34,86.55 -77.57,82.19 -79.81,77.82 -81.51,73.82 -83.22,69.81 -84.70,65.02 -86.19,60.24 -86.63,52.36 -87.08,44.49 -86.33,38.87 -85.59,33.25 -81.13,26.15 -76.66,19.06 -70.80,15.59 -64.94,12.13 -59.88,9.68 -54.83,7.24 -49.21,5.14 -43.59,3.05 -38.37,0.75 -33.15,-1.55 -28.55,-2.59 -23.95,-3.63 -18.82,-5.32 -13.69,-7.00 -8.22,-8.54 -2.74,-10.08 -1.50,-10.26 -0.25,-10.44 0.99,-10.32 2.25,-10.20 3.43,-9.78 4.62,-9.36 5.68,-8.67 6.73,-7.98 7.59,-7.06 8.45,-6.14 9.06,-5.04 9.67,-3.94 10.00,-2.72 10.33,-1.51 10.36,-0.25 10.40,1.00 10.12,2.23 9.85,3.46 9.29,4.59 8.74,5.72 7.93,6.68 7.11,7.64 6.09,8.38 5.08,9.13 3.91,9.60 2.74,10.08 2.74,10.08 L 2.74,10.08 Z"></path></g><g transform="translate(181.6110288687887 11.733444736048341) rotate(0 14.734280256411125 22.53478156862883)" stroke="none"><path fill="#FBEED3" d="M 8.79,-3.99 Q 8.79,-3.99 11.26,1.49 13.73,6.97 16.14,10.78 18.56,14.59 22.18,19.53 25.80,24.47 28.73,28.23 31.65,32.00 34.71,35.25 37.76,38.50 38.59,40.00 39.42,41.49 39.73,43.18 40.04,44.86 39.79,46.55 39.55,48.25 38.78,49.77 38.01,51.30 36.79,52.50 35.57,53.70 34.03,54.45 32.49,55.20 30.79,55.42 29.09,55.64 27.42,55.30 25.74,54.96 24.26,54.11 22.77,53.26 21.64,51.97 20.51,50.69 19.84,49.11 19.18,47.54 19.05,45.83 18.93,44.12 19.35,42.47 19.78,40.81 20.71,39.37 21.65,37.94 22.99,36.88 24.33,35.82 25.94,35.24 27.55,34.66 29.26,34.63 30.97,34.60 32.61,35.11 34.24,35.63 35.62,36.64 37.00,37.64 37.99,39.04 38.98,40.44 39.47,42.08 39.95,43.72 39.90,45.43 39.84,47.14 39.23,48.74 38.63,50.34 37.55,51.67 36.46,52.99 35.01,53.90 33.57,54.81 31.90,55.21 30.24,55.61 28.53,55.46 26.83,55.31 25.26,54.62 23.70,53.93 22.43,52.78 21.17,51.62 21.17,51.63 21.17,51.63 18.45,47.59 15.74,43.55 13.21,39.80 10.67,36.05 6.15,30.33 1.62,24.62 -1.07,19.78 -3.77,14.94 -6.28,9.47 -8.79,3.99 -9.14,2.88 -9.49,1.77 -9.57,0.61 -9.64,-0.54 -9.44,-1.69 -9.23,-2.84 -8.76,-3.90 -8.28,-4.96 -7.57,-5.88 -6.85,-6.80 -5.94,-7.52 -5.02,-8.24 -3.96,-8.73 -2.90,-9.21 -1.76,-9.42 -0.61,-9.64 0.54,-9.57 1.70,-9.50 2.81,-9.16 3.93,-8.82 4.93,-8.22 5.93,-7.62 6.75,-6.80 7.58,-5.98 8.18,-4.99 8.79,-3.99 8.79,-3.99 L 8.79,-3.99 Z"></path></g><g transform="translate(171.21036045249843 287.35115776773915) rotate(0 15.601002624435296 -5.20033420814508)" stroke="none"><path fill="#FBEED3" d="M -2.23,-10.06 Q -2.23,-10.06 2.22,-11.15 6.69,-12.24 12.72,-15.54 18.76,-18.84 22.37,-20.00 25.98,-21.16 27.83,-21.71 29.69,-22.26 31.62,-22.19 33.55,-22.12 35.37,-21.44 37.18,-20.75 38.67,-19.53 40.17,-18.30 41.20,-16.66 42.23,-15.02 42.68,-13.14 43.13,-11.26 42.95,-9.33 42.78,-7.41 42.00,-5.64 41.22,-3.86 39.91,-2.44 38.61,-1.01 36.91,-0.07 35.22,0.86 33.32,1.20 31.41,1.55 29.50,1.27 27.58,1.00 25.86,0.12 24.13,-0.74 22.78,-2.13 21.42,-3.51 20.58,-5.25 19.73,-6.99 19.49,-8.91 19.24,-10.83 19.63,-12.72 20.01,-14.62 20.98,-16.30 21.94,-17.97 23.40,-19.25 24.85,-20.53 26.63,-21.28 28.42,-22.03 30.35,-22.17 32.28,-22.31 34.15,-21.82 36.02,-21.34 37.64,-20.28 39.26,-19.23 40.46,-17.71 41.66,-16.19 42.31,-14.36 42.96,-12.54 43.00,-10.61 43.03,-8.67 42.45,-6.83 41.86,-4.98 40.72,-3.42 39.58,-1.86 37.99,-0.75 36.41,0.36 36.41,0.36 36.42,0.36 30.44,2.08 24.47,3.80 17.86,6.02 11.24,8.25 6.74,9.15 2.23,10.06 0.99,10.18 -0.23,10.30 -1.46,10.12 -2.69,9.94 -3.84,9.48 -4.99,9.01 -6.00,8.28 -7.00,7.55 -7.81,6.60 -8.61,5.65 -9.16,4.54 -9.71,3.43 -9.98,2.21 -10.25,1.00 -10.22,-0.23 -10.19,-1.47 -9.87,-2.67 -9.54,-3.87 -8.94,-4.96 -8.34,-6.04 -7.49,-6.95 -6.65,-7.86 -5.61,-8.55 -4.57,-9.23 -3.40,-9.64 -2.23,-10.06 -2.23,-10.06 L -2.23,-10.06 Z"></path></g></svg>
